<svg width="800" height="900" viewBox="0 0 800 900" fill="none" xmlns="http://www.w3.org/2000/svg">
  <rect width="800" height="900" rx="48" fill="#FFF7FA"/>
  <circle cx="610" cy="210" r="120" fill="#FBCFE8"/>
  <rect x="118" y="154" width="564" height="610" rx="36" fill="white" stroke="#F5D0E0" stroke-width="4"/>
  <rect x="176" y="224" width="262" height="344" rx="30" fill="#FDE7F2"/>
  <rect x="466" y="244" width="148" height="182" rx="20" fill="#F9DDEB"/>
  <rect x="466" y="454" width="148" height="96" rx="20" fill="#F4C9DA"/>
  <circle cx="307" cy="370" r="84" fill="#F6C1D1"/>
  <path d="M255 376C255 334.026 287.026 302 329 302H342C383.974 302 416 334.026 416 376V383H255V376Z" fill="#2D3748"/>
  <path d="M280 324C280 286.026 309.026 257 347 257C384.974 257 414 286.026 414 324V338H280V324Z" fill="#2D3748"/>
  <rect x="271" y="438" width="118" height="80" rx="24" fill="#F9B9C9"/>
  <rect x="239" y="518" width="178" height="34" rx="17" fill="#E9A9BC"/>
  <rect x="500" y="286" width="84" height="90" rx="20" fill="#FDF2F8"/>
  <path d="M541 271C541 255.536 553.536 243 569 243H571C586.464 243 599 255.536 599 271V276H541V271Z" fill="#2D3748"/>
  <circle cx="569" cy="310" r="26" fill="#F6C1D1"/>
  <path d="M488 556C488 521.817 514.817 495 549 495H559C593.183 495 620 521.817 620 556V571H488V556Z" fill="#EFA3BC"/>
  <path d="M512 499C512 474.699 530.699 456 555 456H563C587.301 456 606 474.699 606 499V513H512V499Z" fill="#2D3748"/>
  <rect x="166" y="616" width="318" height="96" rx="24" fill="#FDF2F8"/>
  <path d="M215 645H352" stroke="#EC4899" stroke-width="10" stroke-linecap="round"/>
  <path d="M215 673H306" stroke="#F472B6" stroke-width="10" stroke-linecap="round"/>
</svg>
